<mxfile host="app.diagrams.net" agent="Mozilla/5.0 (Windows NT 10.0; Win64; x64) AppleWebKit/537.36 (KHTML, like Gecko) Chrome/136.0.0.0 Safari/537.36 Edg/136.0.0.0" version="27.1.1">
  <diagram name="Page-1" id="edf60f1a-56cd-e834-aa8a-f176f3a09ee4">
    <mxGraphModel dx="1418" dy="834" grid="1" gridSize="10" guides="1" tooltips="1" connect="1" arrows="1" fold="1" page="1" pageScale="1" pageWidth="1100" pageHeight="850" background="none" math="0" shadow="0">
      <root>
        <mxCell id="0" />
        <mxCell id="1" parent="0" />
        <mxCell id="AENzqRbWgI0dltHrPX-_-3" value="" style="edgeStyle=orthogonalEdgeStyle;rounded=0;orthogonalLoop=1;jettySize=auto;html=1;" edge="1" parent="1" source="AENzqRbWgI0dltHrPX-_-1" target="AENzqRbWgI0dltHrPX-_-2">
          <mxGeometry relative="1" as="geometry" />
        </mxCell>
        <mxCell id="AENzqRbWgI0dltHrPX-_-1" value="Start" style="strokeWidth=2;html=1;shape=mxgraph.flowchart.terminator;whiteSpace=wrap;" vertex="1" parent="1">
          <mxGeometry x="420" y="20" width="100" height="60" as="geometry" />
        </mxCell>
        <mxCell id="AENzqRbWgI0dltHrPX-_-5" value="" style="edgeStyle=orthogonalEdgeStyle;rounded=0;orthogonalLoop=1;jettySize=auto;html=1;" edge="1" parent="1" source="AENzqRbWgI0dltHrPX-_-2" target="AENzqRbWgI0dltHrPX-_-4">
          <mxGeometry relative="1" as="geometry" />
        </mxCell>
        <mxCell id="AENzqRbWgI0dltHrPX-_-2" value="Welcome User" style="rounded=1;whiteSpace=wrap;html=1;absoluteArcSize=1;arcSize=14;strokeWidth=2;" vertex="1" parent="1">
          <mxGeometry x="420" y="120" width="100" height="40" as="geometry" />
        </mxCell>
        <mxCell id="AENzqRbWgI0dltHrPX-_-7" value="" style="edgeStyle=orthogonalEdgeStyle;rounded=0;orthogonalLoop=1;jettySize=auto;html=1;" edge="1" parent="1" source="AENzqRbWgI0dltHrPX-_-4" target="AENzqRbWgI0dltHrPX-_-6">
          <mxGeometry relative="1" as="geometry" />
        </mxCell>
        <mxCell id="AENzqRbWgI0dltHrPX-_-4" value="Ask the User for&lt;div&gt;their name&lt;/div&gt;" style="shape=parallelogram;html=1;strokeWidth=2;perimeter=parallelogramPerimeter;whiteSpace=wrap;rounded=1;arcSize=12;size=0.23;" vertex="1" parent="1">
          <mxGeometry x="390" y="200" width="160" height="60" as="geometry" />
        </mxCell>
        <mxCell id="AENzqRbWgI0dltHrPX-_-10" value="" style="edgeStyle=orthogonalEdgeStyle;rounded=0;orthogonalLoop=1;jettySize=auto;html=1;entryX=0.5;entryY=0;entryDx=0;entryDy=0;" edge="1" parent="1" source="AENzqRbWgI0dltHrPX-_-6" target="AENzqRbWgI0dltHrPX-_-8">
          <mxGeometry relative="1" as="geometry" />
        </mxCell>
        <mxCell id="AENzqRbWgI0dltHrPX-_-6" value="Start the Game" style="rounded=1;whiteSpace=wrap;html=1;absoluteArcSize=1;arcSize=14;strokeWidth=2;" vertex="1" parent="1">
          <mxGeometry x="420" y="280" width="100" height="40" as="geometry" />
        </mxCell>
        <mxCell id="AENzqRbWgI0dltHrPX-_-8" value="Generate a Random Number and set guess count to 0" style="rounded=1;whiteSpace=wrap;html=1;absoluteArcSize=1;arcSize=14;strokeWidth=2;" vertex="1" parent="1">
          <mxGeometry x="420" y="350" width="100" height="70" as="geometry" />
        </mxCell>
        <mxCell id="AENzqRbWgI0dltHrPX-_-9" value="Get a Guess from the user" style="html=1;strokeWidth=2;shape=manualInput;whiteSpace=wrap;rounded=1;size=26;arcSize=11;" vertex="1" parent="1">
          <mxGeometry x="420" y="430" width="100" height="90" as="geometry" />
        </mxCell>
        <mxCell id="AENzqRbWgI0dltHrPX-_-11" value="" style="edgeStyle=orthogonalEdgeStyle;rounded=0;orthogonalLoop=1;jettySize=auto;html=1;exitX=0.5;exitY=1;exitDx=0;exitDy=0;entryX=0.52;entryY=0.156;entryDx=0;entryDy=0;entryPerimeter=0;" edge="1" parent="1" source="AENzqRbWgI0dltHrPX-_-8" target="AENzqRbWgI0dltHrPX-_-9">
          <mxGeometry relative="1" as="geometry">
            <mxPoint x="560" y="360" as="sourcePoint" />
            <mxPoint x="560" y="400" as="targetPoint" />
          </mxGeometry>
        </mxCell>
        <mxCell id="AENzqRbWgI0dltHrPX-_-15" value="Yes" style="edgeStyle=orthogonalEdgeStyle;rounded=0;orthogonalLoop=1;jettySize=auto;html=1;" edge="1" parent="1" source="AENzqRbWgI0dltHrPX-_-12" target="AENzqRbWgI0dltHrPX-_-14">
          <mxGeometry relative="1" as="geometry" />
        </mxCell>
        <mxCell id="AENzqRbWgI0dltHrPX-_-19" value="No" style="edgeStyle=orthogonalEdgeStyle;rounded=0;orthogonalLoop=1;jettySize=auto;html=1;" edge="1" parent="1" source="AENzqRbWgI0dltHrPX-_-12" target="AENzqRbWgI0dltHrPX-_-18">
          <mxGeometry relative="1" as="geometry" />
        </mxCell>
        <mxCell id="AENzqRbWgI0dltHrPX-_-12" value="Was the input a&lt;div&gt;number and in range&lt;/div&gt;" style="strokeWidth=2;html=1;shape=mxgraph.flowchart.decision;whiteSpace=wrap;" vertex="1" parent="1">
          <mxGeometry x="395" y="540" width="150" height="100" as="geometry" />
        </mxCell>
        <mxCell id="AENzqRbWgI0dltHrPX-_-13" style="edgeStyle=orthogonalEdgeStyle;rounded=0;orthogonalLoop=1;jettySize=auto;html=1;exitX=0.5;exitY=1;exitDx=0;exitDy=0;entryX=0.5;entryY=0;entryDx=0;entryDy=0;entryPerimeter=0;" edge="1" parent="1" source="AENzqRbWgI0dltHrPX-_-9" target="AENzqRbWgI0dltHrPX-_-12">
          <mxGeometry relative="1" as="geometry" />
        </mxCell>
        <mxCell id="AENzqRbWgI0dltHrPX-_-22" value="" style="edgeStyle=orthogonalEdgeStyle;rounded=0;orthogonalLoop=1;jettySize=auto;html=1;" edge="1" parent="1" source="AENzqRbWgI0dltHrPX-_-14" target="AENzqRbWgI0dltHrPX-_-21">
          <mxGeometry relative="1" as="geometry" />
        </mxCell>
        <mxCell id="AENzqRbWgI0dltHrPX-_-14" value="Increment the guess count" style="whiteSpace=wrap;html=1;strokeWidth=2;" vertex="1" parent="1">
          <mxGeometry x="600" y="560" width="120" height="60" as="geometry" />
        </mxCell>
        <mxCell id="AENzqRbWgI0dltHrPX-_-18" value="Show an error message to the user" style="whiteSpace=wrap;html=1;strokeWidth=2;" vertex="1" parent="1">
          <mxGeometry x="220" y="560" width="120" height="60" as="geometry" />
        </mxCell>
        <mxCell id="AENzqRbWgI0dltHrPX-_-20" value="" style="endArrow=classic;html=1;rounded=0;exitX=0.5;exitY=0;exitDx=0;exitDy=0;entryX=0;entryY=0.5;entryDx=0;entryDy=0;" edge="1" parent="1" source="AENzqRbWgI0dltHrPX-_-18" target="AENzqRbWgI0dltHrPX-_-9">
          <mxGeometry width="50" height="50" relative="1" as="geometry">
            <mxPoint x="190" y="480" as="sourcePoint" />
            <mxPoint x="240" y="430" as="targetPoint" />
            <Array as="points">
              <mxPoint x="280" y="475" />
            </Array>
          </mxGeometry>
        </mxCell>
        <mxCell id="AENzqRbWgI0dltHrPX-_-24" value="Too High" style="edgeStyle=orthogonalEdgeStyle;rounded=0;orthogonalLoop=1;jettySize=auto;html=1;" edge="1" parent="1" source="AENzqRbWgI0dltHrPX-_-21" target="AENzqRbWgI0dltHrPX-_-23">
          <mxGeometry relative="1" as="geometry" />
        </mxCell>
        <mxCell id="AENzqRbWgI0dltHrPX-_-26" value="Too Low" style="edgeStyle=orthogonalEdgeStyle;rounded=0;orthogonalLoop=1;jettySize=auto;html=1;" edge="1" parent="1" source="AENzqRbWgI0dltHrPX-_-21" target="AENzqRbWgI0dltHrPX-_-25">
          <mxGeometry relative="1" as="geometry" />
        </mxCell>
        <mxCell id="AENzqRbWgI0dltHrPX-_-28" value="Correct" style="edgeStyle=orthogonalEdgeStyle;rounded=0;orthogonalLoop=1;jettySize=auto;html=1;" edge="1" parent="1" source="AENzqRbWgI0dltHrPX-_-21" target="AENzqRbWgI0dltHrPX-_-27">
          <mxGeometry relative="1" as="geometry" />
        </mxCell>
        <mxCell id="AENzqRbWgI0dltHrPX-_-21" value="Guess too high, low&lt;span style=&quot;background-color: transparent; color: light-dark(rgb(0, 0, 0), rgb(255, 255, 255));&quot;&gt;,&lt;/span&gt;&lt;div&gt;&lt;span style=&quot;background-color: transparent; color: light-dark(rgb(0, 0, 0), rgb(255, 255, 255));&quot;&gt;or just right&lt;/span&gt;&lt;/div&gt;" style="rhombus;whiteSpace=wrap;html=1;strokeWidth=2;" vertex="1" parent="1">
          <mxGeometry x="750" y="540" width="140" height="100" as="geometry" />
        </mxCell>
        <mxCell id="AENzqRbWgI0dltHrPX-_-23" value="Message user guess&amp;nbsp;&lt;div&gt;was too high&lt;/div&gt;" style="rounded=1;whiteSpace=wrap;html=1;strokeWidth=2;" vertex="1" parent="1">
          <mxGeometry x="760" y="430" width="120" height="60" as="geometry" />
        </mxCell>
        <mxCell id="AENzqRbWgI0dltHrPX-_-25" value="Message user guess was too low" style="rounded=1;whiteSpace=wrap;html=1;strokeWidth=2;" vertex="1" parent="1">
          <mxGeometry x="970" y="560" width="120" height="60" as="geometry" />
        </mxCell>
        <mxCell id="AENzqRbWgI0dltHrPX-_-33" value="" style="edgeStyle=orthogonalEdgeStyle;rounded=0;orthogonalLoop=1;jettySize=auto;html=1;" edge="1" parent="1" source="AENzqRbWgI0dltHrPX-_-27" target="AENzqRbWgI0dltHrPX-_-32">
          <mxGeometry relative="1" as="geometry" />
        </mxCell>
        <mxCell id="AENzqRbWgI0dltHrPX-_-27" value="Congratulate User and message how many guesses it took!" style="rounded=1;whiteSpace=wrap;html=1;strokeWidth=2;" vertex="1" parent="1">
          <mxGeometry x="760" y="680" width="120" height="60" as="geometry" />
        </mxCell>
        <mxCell id="AENzqRbWgI0dltHrPX-_-29" value="" style="endArrow=classic;html=1;rounded=0;exitX=-0.025;exitY=0.383;exitDx=0;exitDy=0;exitPerimeter=0;entryX=1;entryY=0.75;entryDx=0;entryDy=0;" edge="1" parent="1" source="AENzqRbWgI0dltHrPX-_-23" target="AENzqRbWgI0dltHrPX-_-9">
          <mxGeometry width="50" height="50" relative="1" as="geometry">
            <mxPoint x="670" y="470" as="sourcePoint" />
            <mxPoint x="720" y="420" as="targetPoint" />
            <Array as="points">
              <mxPoint x="620" y="453" />
              <mxPoint x="620" y="498" />
            </Array>
          </mxGeometry>
        </mxCell>
        <mxCell id="AENzqRbWgI0dltHrPX-_-30" value="" style="endArrow=classic;html=1;rounded=0;exitX=0.5;exitY=0;exitDx=0;exitDy=0;entryX=1;entryY=0.25;entryDx=0;entryDy=0;" edge="1" parent="1" source="AENzqRbWgI0dltHrPX-_-25" target="AENzqRbWgI0dltHrPX-_-9">
          <mxGeometry width="50" height="50" relative="1" as="geometry">
            <mxPoint x="1020" y="530" as="sourcePoint" />
            <mxPoint x="1070" y="480" as="targetPoint" />
            <Array as="points">
              <mxPoint x="1030" y="410" />
              <mxPoint x="590" y="410" />
              <mxPoint x="590" y="453" />
            </Array>
          </mxGeometry>
        </mxCell>
        <mxCell id="AENzqRbWgI0dltHrPX-_-32" value="Do you want&lt;div&gt;to play again?&lt;/div&gt;" style="strokeWidth=2;html=1;shape=mxgraph.flowchart.decision;whiteSpace=wrap;" vertex="1" parent="1">
          <mxGeometry x="560" y="660" width="120" height="100" as="geometry" />
        </mxCell>
        <mxCell id="AENzqRbWgI0dltHrPX-_-34" value="Yes" style="endArrow=classic;html=1;rounded=0;exitX=0;exitY=0.5;exitDx=0;exitDy=0;exitPerimeter=0;entryX=0;entryY=0.5;entryDx=0;entryDy=0;" edge="1" parent="1" source="AENzqRbWgI0dltHrPX-_-32" target="AENzqRbWgI0dltHrPX-_-6">
          <mxGeometry width="50" height="50" relative="1" as="geometry">
            <mxPoint x="260" y="790" as="sourcePoint" />
            <mxPoint x="310" y="740" as="targetPoint" />
            <Array as="points">
              <mxPoint x="150" y="710" />
              <mxPoint x="150" y="300" />
            </Array>
          </mxGeometry>
        </mxCell>
        <mxCell id="AENzqRbWgI0dltHrPX-_-35" value="End Program" style="strokeWidth=2;html=1;shape=mxgraph.flowchart.terminator;whiteSpace=wrap;" vertex="1" parent="1">
          <mxGeometry x="330" y="760" width="100" height="60" as="geometry" />
        </mxCell>
        <mxCell id="AENzqRbWgI0dltHrPX-_-36" value="No" style="edgeStyle=orthogonalEdgeStyle;rounded=0;orthogonalLoop=1;jettySize=auto;html=1;exitX=0.5;exitY=1;exitDx=0;exitDy=0;exitPerimeter=0;entryX=1;entryY=0.5;entryDx=0;entryDy=0;entryPerimeter=0;" edge="1" parent="1" source="AENzqRbWgI0dltHrPX-_-32" target="AENzqRbWgI0dltHrPX-_-35">
          <mxGeometry relative="1" as="geometry" />
        </mxCell>
      </root>
    </mxGraphModel>
  </diagram>
</mxfile>
